<svg width="405" height="163" viewBox="0 0 405 163" fill="none" xmlns="http://www.w3.org/2000/svg">
<path d="M400.587 120.969C403.329 120.645 405.29 118.159 404.965 115.417L399.684 70.7276C399.36 67.9853 396.874 66.0249 394.132 66.349C391.389 66.6731 389.429 69.159 389.753 71.9013L394.448 111.625L354.724 116.32C351.982 116.644 350.021 119.13 350.346 121.872C350.67 124.614 353.156 126.575 355.898 126.25L400.587 120.969ZM3 25.0032C5.10924 29.5366 5.10774 29.5373 5.10651 29.5378C5.10647 29.5379 5.10551 29.5383 5.10542 29.5383C5.10524 29.5384 5.10615 29.538 5.10815 29.5371C5.11215 29.5352 5.1205 29.5314 5.1332 29.5256C5.15859 29.514 5.20135 29.4945 5.26132 29.4675C5.38128 29.4135 5.57011 29.3295 5.82674 29.2181C6.34 28.9951 7.12433 28.6626 8.17095 28.2415C10.2643 27.3993 13.4062 26.2032 17.5266 24.8221C25.7681 22.0596 37.918 18.559 53.4168 15.6681C84.4121 9.88691 128.785 6.54701 182.09 16.4165L183.91 6.58365C129.215 -3.54349 83.5879 -0.131816 51.5832 5.83769C35.582 8.82223 22.9819 12.4467 14.3484 15.3406C10.0313 16.7876 6.70443 18.0525 4.43842 18.9642C3.30536 19.4201 2.43734 19.7877 1.84318 20.0457C1.54609 20.1748 1.31745 20.2764 1.15835 20.348C1.0788 20.3838 1.01664 20.4121 0.971991 20.4325C0.949669 20.4427 0.931726 20.451 0.918181 20.4572C0.911408 20.4603 0.905735 20.463 0.901162 20.4651C0.898877 20.4661 0.896273 20.4673 0.895131 20.4679C0.892804 20.469 0.890753 20.4699 3 25.0032ZM243.406 152.036C232.226 153.374 223.468 150.942 217.009 146.527C210.512 142.084 206.019 135.412 203.803 127.749C199.345 112.326 204.269 93.5157 219.867 82.5967L214.133 74.4044C194.731 87.9859 188.655 111.358 194.197 130.526C196.981 140.158 202.738 148.883 211.366 154.782C220.032 160.707 231.274 163.559 244.594 161.965L243.406 152.036ZM219.867 82.5967C236.379 71.0386 259.015 63.4945 288.191 67.1493C317.462 70.816 353.628 85.8016 396.904 119.929L403.096 112.077C358.872 77.2019 321.038 61.1858 289.434 57.2268C257.735 53.2559 232.621 61.462 214.133 74.4044L219.867 82.5967ZM182.09 16.4165C234.081 26.0429 260.078 59.4264 267.51 90.706C271.253 106.457 270.252 121.501 265.695 132.723C261.159 143.896 253.365 150.844 243.406 152.036L244.594 161.965C259.135 160.225 269.466 150.019 274.961 136.485C280.436 123.001 281.372 105.786 277.24 88.3943C268.922 53.3889 239.919 16.9539 183.91 6.58365L182.09 16.4165Z" fill="#FF8A00"/>
</svg>
