<svg width="215" height="196" viewBox="0 0 215 196" fill="none" xmlns="http://www.w3.org/2000/svg">
<path d="M187.846 31.308C187.01 38.6338 185.203 45.823 182.471 52.6919C180.813 57.1144 178.773 61.9477 176.439 67.0274C173.971 72.4788 171.123 77.7561 167.914 82.8214C166.176 85.5422 164.259 88.1482 162.175 90.6224C160.043 93.2163 157.678 95.6168 155.11 97.7947C152.505 100.056 149.638 102.006 146.569 103.605C143.492 105.263 140.201 106.502 136.788 107.288L136.219 107.403C136.235 107.209 136.29 107.005 136.319 106.799C137.392 99.0232 135.872 91.1221 131.989 84.2847C129.982 80.8378 127.282 77.8317 124.054 75.4493C120.674 72.9515 116.698 71.3506 112.505 70.7993C110.304 70.4426 108.057 70.4339 105.851 70.7734C103.376 71.136 101.015 72.0494 98.9482 73.4441C96.9763 74.8478 95.3261 76.6447 94.1056 78.7173C92.8851 80.7899 92.1218 83.0916 91.8655 85.4717C91.4035 89.7839 92.49 94.1144 94.9362 97.7106C97.1569 101.017 100.019 103.857 103.358 106.07C106.623 108.274 110.214 109.967 114.007 111.09C118.743 112.482 123.688 113.067 128.629 112.822C128.25 113.859 127.801 114.871 127.285 115.85C124.286 121.647 120.018 126.72 114.79 130.7C109.94 134.444 104.545 137.446 98.7887 139.603C93.7714 141.512 88.5382 142.812 83.2051 143.473C78.6601 143.933 74.0835 143.988 69.5309 143.638C62.4028 143.163 55.3514 141.919 48.5031 139.93C43.8985 138.631 39.4015 136.991 35.0509 135.022C31.57 133.419 29.1054 132.14 27.2171 131.1C25.5634 130.226 24.4972 129.605 23.6523 129.161L25.0792 129.026C29.147 128.644 32.8199 128.231 35.9099 127.81C42.0784 126.954 45.9831 126.143 45.9315 125.417C45.8799 124.692 42.1327 124.352 35.9761 124.316C32.8864 124.285 29.2304 124.344 25.1581 124.482L23.6139 124.533C22.9491 124.549 22.2867 124.62 21.634 124.747C21.2164 124.835 20.8072 124.959 20.4111 125.117C19.907 125.317 19.4333 125.585 19.0038 125.914C18.1193 126.59 17.4761 127.526 17.1678 128.585C16.861 129.957 16.8194 131.374 17.0452 132.759L17.2972 136.009C19.0336 154.004 21.5372 168.438 22.9362 168.191C24.3351 167.945 24.0835 153.159 22.3605 135.153L22.1099 132.785C22.8667 133.469 23.6687 134.103 24.5107 134.683C26.9843 136.464 29.5922 138.056 32.3119 139.447C36.7644 141.781 41.427 143.707 46.2406 145.198C53.4256 147.491 60.8624 148.941 68.3973 149.52C73.3542 149.92 78.3397 149.864 83.2888 149.352C89.1861 148.654 94.9738 147.232 100.517 145.119C106.934 142.718 112.941 139.363 118.331 135.171C124.363 130.546 129.269 124.651 132.689 117.92C133.683 115.984 134.475 113.955 135.054 111.864C135.824 111.716 136.594 111.567 137.343 111.368C141.156 110.433 144.826 108.997 148.253 107.099C151.584 105.272 154.688 103.07 157.503 100.537C160.212 98.1446 162.695 95.5157 164.923 92.6824C167.047 90.0583 168.994 87.2993 170.749 84.4233C173.928 79.1736 176.711 73.7014 179.074 68.0511C181.314 62.8091 183.207 57.8951 184.755 53.3092C187.283 46.2198 188.735 38.8049 189.064 31.3044C189.123 29.3144 189.026 27.3233 188.775 25.3488C188.563 24.0112 188.443 23.3657 188.308 23.343C188.174 23.3204 188.306 26.2177 187.82 31.3304L187.846 31.308ZM130.213 106.449C130.14 107.03 130.018 107.608 129.895 108.186C125.117 108.474 120.328 107.892 115.769 106.468C112.442 105.42 109.299 103.877 106.449 101.893C103.634 99.9711 101.233 97.5194 99.3852 94.6786C97.6142 91.9885 96.8533 88.7714 97.2337 85.5816C97.4016 84.0129 97.9031 82.4957 98.7054 81.1287C99.5078 79.7617 100.593 78.5757 101.891 77.6478C104.69 76.0322 107.997 75.4989 111.167 76.1519C114.486 76.6305 117.623 77.939 120.278 79.9524C122.897 81.9708 125.075 84.4903 126.68 87.3601C128.309 90.2323 129.447 93.3498 130.05 96.5882C130.676 99.8319 130.74 103.158 130.24 106.426" fill="#E34932"/>
</svg>
